<svg width="24" height="32" viewBox="0 0 24 32" fill="none" xmlns="http://www.w3.org/2000/svg">
<g clip-path="url(#clip0_4_145)">
<path fill-rule="evenodd" clip-rule="evenodd" d="M22.8103 16.75L13.5 7.43969C13.2197 7.15711 12.8377 6.99873 12.4397 7H3.75C3.33579 7 3 7.33579 3 7.75V16.4397C2.99873 16.8377 3.15711 17.2197 3.43969 17.5L12.75 26.8103C13.0313 27.0917 13.4129 27.2498 13.8108 27.2498C14.2087 27.2498 14.5902 27.0917 14.8716 26.8103L22.8103 18.8716C23.0917 18.5902 23.2498 18.2087 23.2498 17.8108C23.2498 17.4129 23.0917 17.0313 22.8103 16.75ZM13.8103 25.75L4.5 16.4397V8.5H12.4397L21.75 17.8103L13.8103 25.75ZM9 11.875C9 12.4963 8.49632 13 7.875 13C7.25368 13 6.75 12.4963 6.75 11.875C6.75 11.2537 7.25368 10.75 7.875 10.75C8.49632 10.75 9 11.2537 9 11.875Z" fill="#876370"/>
</g>
<defs>
<clipPath id="clip0_4_145">
<rect width="24" height="24" fill="white" transform="translate(0 4)"/>
</clipPath>
</defs>
</svg>
