<svg width="48" height="32" viewBox="0 0 48 32" fill="none" xmlns="http://www.w3.org/2000/svg">
<g clip-path="url(#clip0_4_127)">
<path fill-rule="evenodd" clip-rule="evenodd" d="M33 14.8328V23.5C33 24.3284 32.3284 25 31.5 25H27.75C26.9216 25 26.25 24.3284 26.25 23.5V19.75C26.25 19.3358 25.9142 19 25.5 19H22.5C22.0858 19 21.75 19.3358 21.75 19.75V23.5C21.75 24.3284 21.0784 25 20.25 25H16.5C15.6716 25 15 24.3284 15 23.5V14.8328C14.9999 14.4131 15.1757 14.0125 15.4847 13.7284L22.9847 6.65219L22.995 6.64188C23.5672 6.1215 24.4412 6.1215 25.0134 6.64188C25.0166 6.64554 25.0201 6.64899 25.0238 6.65219L32.5238 13.7284C32.8296 14.014 33.0022 14.4144 33 14.8328Z" fill="#171212"/>
</g>
<defs>
<clipPath id="clip0_4_127">
<rect width="24" height="24" fill="white" transform="translate(12 4)"/>
</clipPath>
</defs>
</svg>
