<svg width="48" height="48" viewBox="0 0 48 48" fill="none" xmlns="http://www.w3.org/2000/svg">
<g clip-path="url(#clip0_4_11)">
<path fill-rule="evenodd" clip-rule="evenodd" d="M44.25 15.75H27.75C26.9216 15.75 26.25 16.4216 26.25 17.25V30.75C26.25 31.5784 26.9216 32.25 27.75 32.25H44.25C45.0784 32.25 45.75 31.5784 45.75 30.75V17.25C45.75 16.4216 45.0784 15.75 44.25 15.75ZM44.25 30.75H27.75V17.25H44.25V30.75ZM40.5 20.25C40.5 22.7353 38.4853 24.75 36 24.75C33.5147 24.75 31.5 22.7353 31.5 20.25C31.5 19.8358 31.8358 19.5 32.25 19.5C32.6642 19.5 33 19.8358 33 20.25C33 21.9069 34.3431 23.25 36 23.25C37.6569 23.25 39 21.9069 39 20.25C39 19.8358 39.3358 19.5 39.75 19.5C40.1642 19.5 40.5 19.8358 40.5 20.25Z" fill="#171212"/>
</g>
<defs>
<clipPath id="clip0_4_11">
<rect width="24" height="24" fill="white" transform="translate(24 12)"/>
</clipPath>
</defs>
</svg>
