<svg width="24" height="32" viewBox="0 0 24 32" fill="none" xmlns="http://www.w3.org/2000/svg">
<g clip-path="url(#clip0_4_154)">
<path fill-rule="evenodd" clip-rule="evenodd" d="M16.6875 7C14.7516 7 13.0566 7.8325 12 9.23969C10.9434 7.8325 9.24844 7 7.3125 7C4.10384 7.00362 1.50362 9.60384 1.5 12.8125C1.5 19.375 11.2303 24.6869 11.6447 24.9062C11.8665 25.0256 12.1335 25.0256 12.3553 24.9062C12.7697 24.6869 22.5 19.375 22.5 12.8125C22.4964 9.60384 19.8962 7.00362 16.6875 7ZM12 23.3875C10.2881 22.39 3 17.8459 3 12.8125C3.0031 10.4321 4.93206 8.5031 7.3125 8.5C9.13594 8.5 10.6669 9.47125 11.3062 11.0312C11.4218 11.3126 11.6959 11.4963 12 11.4963C12.3041 11.4963 12.5782 11.3126 12.6938 11.0312C13.3331 9.46844 14.8641 8.5 16.6875 8.5C19.0679 8.5031 20.9969 10.4321 21 12.8125C21 17.8384 13.71 22.3891 12 23.3875Z" fill="#876370"/>
</g>
<defs>
<clipPath id="clip0_4_154">
<rect width="24" height="24" fill="white" transform="translate(0 4)"/>
</clipPath>
</defs>
</svg>
